<svg xmlns="http://www.w3.org/2000/svg" xmlns:xlink="http://www.w3.org/1999/xlink" zoomAndPan="magnify" preserveAspectRatio="xMidYMid meet" version="1.0" viewBox="121.35 115.54 132 144"><defs><clipPath id="id1"><path d="M 121.347656 115.542969 L 253.347656 115.542969 L 253.347656 259.542969 L 121.347656 259.542969 Z M 121.347656 115.542969 " clip-rule="nonzero"/></clipPath></defs><path fill="#004aad" d="M 153.347656 128.859375 C 145.324219 149.261719 154.546875 161 181.011719 164.066406 C 164.046875 155.152344 161.433594 139.464844 173.179688 116.996094 C 161.117188 121.824219 155.675781 130.574219 156.851562 143.25 C 153.964844 138.355469 152.796875 133.558594 153.347656 128.859375 Z M 153.347656 128.859375 " fill-opacity="1" fill-rule="evenodd"/><g clip-path="url(#id1)"><path fill="#004aad" d="M 159.136719 158.746094 C 143.128906 149.949219 132.507812 133.769531 130.773438 115.542969 C 125.265625 122.238281 122.769531 130.925781 123.878906 139.535156 C 124.992188 148.140625 129.609375 155.902344 136.636719 160.972656 C 131.109375 159.875 125.890625 157.574219 121.347656 154.234375 C 123.371094 164 131.605469 171.230469 141.523438 171.953125 C 137.636719 173.890625 133.226562 174.511719 128.957031 173.722656 C 136.246094 190.210938 158.476562 190.382812 195.648438 174.226562 C 195.628906 174.234375 195.613281 174.242188 195.597656 174.25 C 161.34375 189.242188 127.46875 223.21875 154.496094 259.167969 C 153.710938 262.191406 158.207031 246.859375 167.980469 213.171875 C 228.191406 222.164062 178.597656 158.960938 253.347656 161.632812 L 221.050781 157.195312 C 216.839844 151.007812 209.644531 147.5625 202.199219 148.171875 C 193.699219 148.871094 186.371094 154.554688 184.410156 162.949219 C 200.96875 149.847656 195.851562 167.359375 210.710938 159.488281 C 194.457031 167.824219 175.144531 167.546875 159.136719 158.746094 Z M 159.136719 158.746094 " fill-opacity="1" fill-rule="evenodd"/></g></svg>